# xmcd
#
# Track frame offsets:
#	150
#	15063
#	30656
#	48697
#	65049
#	81130
#	95217
#	109822
#	126390
#	144742
#	163479
#	178442
#	193219
#	213193
#	227755
#
# Disc length: 3231 seconds
#
# Revision: 0
# Processed by: cddbd v1.4PL0 Copyright (c) Steve Scherf et al.
# Submitted via: dBpowerAMP V4.0
#
DISCID=e40c9d0f
DTITLE=Danny Flowers - Forbidden Fruits and Vegetables
DYEAR=1900
DGENRE=Blues
TTITLE0=Tulsa Time
TTITLE1=Ready
TTITLE2=Rededicating My Love To You
TTITLE3=Tennessee Hideaway
TTITLE4=Nervouse
TTITLE5=Poor Bob
TTITLE6=Gulf Coast Highway
TTITLE7=Before Believing
TTITLE8=Back In My Younger Days
TTITLE9=Read On
TTITLE10=Breaking Piont
TTITLE11=Hang Around the House and Cry
TTITLE12=Off the Deep End
TTITLE13=To Make Somebody Happy
TTITLE14=Everything is Alright - Tulsa Time reprise
EXTD=All Songs Written By Danny Flowers.  Made into hits by Clapton and Don  Williams.
EXTT0=
EXTT1=
EXTT2=
EXTT3=
EXTT4=
EXTT5=
EXTT6=
EXTT7=
EXTT8=
EXTT9=
EXTT10=
EXTT11=
EXTT12=
EXTT13=
EXTT14=
PLAYORDER=
